<svg width="44" height="44" viewBox="0 0 44 44" fill="none" xmlns="http://www.w3.org/2000/svg">
<g id="UsersThree">
<path id="Vector" d="M22 30.9375C25.797 30.9375 28.875 27.8595 28.875 24.0625C28.875 20.2655 25.797 17.1875 22 17.1875C18.203 17.1875 15.125 20.2655 15.125 24.0625C15.125 27.8595 18.203 30.9375 22 30.9375Z" stroke="white" stroke-width="3" stroke-linecap="round" stroke-linejoin="round"/>
<path id="Vector_2" d="M33.6875 19.9375C35.2889 19.9348 36.8688 20.3064 38.3012 21.0226C39.7336 21.7388 40.9788 22.7798 41.9375 24.0625" stroke="white" stroke-width="3" stroke-linecap="round" stroke-linejoin="round"/>
<path id="Vector_3" d="M2.0625 24.0625C3.02122 22.7798 4.26642 21.7388 5.69879 21.0226C7.13116 20.3064 8.71106 19.9348 10.3125 19.9375" stroke="white" stroke-width="3" stroke-linecap="round" stroke-linejoin="round"/>
<path id="Vector_4" d="M12.1001 37.125C13.0056 35.2706 14.4137 33.7078 16.164 32.6147C17.9143 31.5215 19.9365 30.9419 22.0001 30.9419C24.0637 30.9419 26.0859 31.5215 27.8362 32.6147C29.5865 33.7078 30.9946 35.2706 31.9001 37.125" stroke="white" stroke-width="3" stroke-linecap="round" stroke-linejoin="round"/>
<path id="Vector_5" d="M10.3125 19.9375C9.26857 19.9386 8.24593 19.6425 7.36403 19.084C6.48214 18.5254 5.77741 17.7274 5.33219 16.7832C4.88698 15.839 4.71966 14.7876 4.84979 13.7519C4.97992 12.7161 5.40213 11.7388 6.06707 10.9341C6.73202 10.1294 7.61225 9.5305 8.60491 9.20747C9.59757 8.88443 10.6617 8.85056 11.6728 9.10982C12.684 9.36908 13.6006 9.91076 14.3153 10.6716C15.0301 11.4324 15.5136 12.3809 15.7093 13.4062" stroke="white" stroke-width="3" stroke-linecap="round" stroke-linejoin="round"/>
<path id="Vector_6" d="M28.2905 13.4062C28.4863 12.3809 28.9698 11.4324 29.6845 10.6716C30.3993 9.91076 31.3158 9.36908 32.327 9.10982C33.3382 8.85056 34.4023 8.88443 35.395 9.20747C36.3876 9.5305 37.2678 10.1294 37.9328 10.9341C38.5977 11.7388 39.0199 12.7161 39.1501 13.7519C39.2802 14.7876 39.1129 15.839 38.6677 16.7832C38.2225 17.7274 37.5177 18.5254 36.6358 19.084C35.7539 19.6425 34.7313 19.9386 33.6874 19.9375" stroke="white" stroke-width="3" stroke-linecap="round" stroke-linejoin="round"/>
</g>
</svg>
